<svg xmlns="http://www.w3.org/2000/svg" xmlns:xlink="http://www.w3.org/1999/xlink" width="500" zoomAndPan="magnify" viewBox="0 0 375 374.999991" height="500" preserveAspectRatio="xMidYMid meet" version="1.0"><defs><g/><clipPath id="c2dd817be3"><path d="M 50.984375 0 L 324 0 L 324 375 L 50.984375 375 Z M 50.984375 0 " clip-rule="nonzero"/></clipPath><clipPath id="a03ad190a3"><path d="M 282.417969 327.503906 L 218.601562 320.609375 L 220.441406 375 L 93.960938 344.203125 L 50.984375 52.171875 L 165.4375 66.035156 L 165.4375 44.816406 L 324.015625 0 Z M 282.417969 327.503906 " clip-rule="nonzero"/></clipPath></defs><g clip-path="url(#c2dd817be3)"><g clip-path="url(#a03ad190a3)"><path fill="#000000" d="M 50.984375 0 L 323.710938 0 L 323.710938 375.382812 L 50.984375 375.382812 Z M 50.984375 0 " fill-opacity="1" fill-rule="nonzero"/></g></g><path fill="#ff1616" d="M 153.195312 108.492188 C 148.160156 108.210938 143.34375 109.363281 139.167969 111.609375 C 131.71875 115.613281 126.300781 123.09375 125.300781 132.140625 C 123.6875 146.757812 134.210938 159.90625 148.816406 161.523438 C 157.789062 162.515625 175.902344 152.667969 183.460938 148.285156 C 188.035156 145.636719 192.589844 142.957031 197.144531 140.277344 C 219.234375 127.285156 220.527344 126.890625 239.585938 145.78125 C 226.628906 153.316406 213.609375 160.882812 200.546875 168.457031 C 182.113281 179.507812 162.070312 189.207031 145.953125 187.425781 C 117.058594 184.226562 96.21875 158.1875 99.414062 129.277344 C 102.609375 100.367188 128.632812 79.511719 157.527344 82.710938 C 165.210938 83.558594 173.191406 87.152344 181.128906 92.28125 C 178.226562 93.898438 175.457031 95.523438 172.867188 97.074219 C 166.308594 100.878906 159.75 104.683594 153.195312 108.492188 Z M 153.195312 108.492188 " fill-opacity="1" fill-rule="evenodd"/><path fill="#d9d9d9" d="M 222.863281 161.53125 C 227.894531 161.808594 232.710938 160.65625 236.890625 158.410156 C 244.335938 154.40625 249.753906 146.925781 250.753906 137.878906 C 252.371094 123.265625 241.84375 110.113281 227.238281 108.496094 C 218.265625 107.503906 200.15625 117.355469 192.597656 121.738281 C 188.023438 124.386719 183.464844 127.0625 178.910156 129.742188 C 156.824219 142.734375 155.53125 143.128906 136.472656 124.238281 C 149.425781 116.703125 162.449219 109.140625 175.511719 101.566406 C 193.945312 90.515625 213.984375 80.8125 230.101562 82.597656 C 258.996094 85.792969 279.835938 111.832031 276.640625 140.746094 C 273.445312 169.65625 247.421875 190.507812 218.527344 187.308594 C 210.847656 186.460938 202.867188 182.871094 194.929688 177.738281 C 197.832031 176.121094 200.601562 174.5 203.191406 172.945312 C 209.75 169.144531 216.308594 165.335938 222.863281 161.53125 Z M 222.863281 161.53125 " fill-opacity="1" fill-rule="evenodd"/><g fill="#ffffff" fill-opacity="1"><g transform="translate(114.843732, 230.462094)"><g><path d="M 0.894531 -0.296875 L 0.894531 0 L 5.671875 0 C 8.898438 0 11.046875 -2.148438 11.046875 -4.777344 L 11.046875 -16.125 C 11.046875 -18.75 8.898438 -20.898438 5.671875 -20.898438 L 0.894531 -20.898438 L 0.894531 -20.601562 L 2.089844 -20.601562 L 2.089844 -0.296875 Z M 8.660156 -4.777344 C 8.660156 -2.300781 7.316406 -0.296875 5.671875 -0.296875 L 4.480469 -0.296875 L 4.480469 -20.601562 L 5.671875 -20.601562 C 7.316406 -20.601562 8.660156 -18.601562 8.660156 -16.125 Z M 8.660156 -4.777344 "/></g></g></g><g fill="#ffffff" fill-opacity="1"><g transform="translate(127.917284, 230.462094)"><g><path d="M 9.554688 -20.898438 L 0.894531 -20.898438 L 0.894531 -20.601562 L 2.089844 -20.601562 L 2.089844 -0.296875 L 0.894531 -0.296875 L 0.894531 0 L 9.554688 0 L 9.554688 -4.179688 L 9.253906 -4.179688 C 9.253906 -2.03125 8.390625 -0.296875 7.316406 -0.296875 L 4.480469 -0.296875 L 4.480469 -10.300781 L 6.269531 -10.300781 C 6.925781 -10.300781 7.464844 -9.226562 7.464844 -7.914062 L 7.761719 -7.914062 L 7.761719 -12.988281 L 7.464844 -12.988281 C 7.464844 -11.675781 6.925781 -10.597656 6.269531 -10.597656 L 4.480469 -10.597656 L 4.480469 -20.601562 L 7.316406 -20.601562 C 8.390625 -20.601562 9.253906 -18.871094 9.253906 -16.71875 L 9.554688 -16.71875 Z M 9.554688 -20.898438 "/></g></g></g><g fill="#ffffff" fill-opacity="1"><g transform="translate(139.140292, 230.462094)"><g><path d="M 0.894531 -0.296875 L 0.894531 0 L 5.671875 0 C 8.898438 0 11.046875 -2.148438 11.046875 -4.777344 L 11.046875 -16.125 C 11.046875 -18.75 8.898438 -20.898438 5.671875 -20.898438 L 0.894531 -20.898438 L 0.894531 -20.601562 L 2.089844 -20.601562 L 2.089844 -0.296875 Z M 8.660156 -4.777344 C 8.660156 -2.300781 7.316406 -0.296875 5.671875 -0.296875 L 4.480469 -0.296875 L 4.480469 -20.601562 L 5.671875 -20.601562 C 7.316406 -20.601562 8.660156 -18.601562 8.660156 -16.125 Z M 8.660156 -4.777344 "/></g></g></g><g fill="#ffffff" fill-opacity="1"><g transform="translate(152.213844, 230.462094)"><g><path d="M 0.894531 -20.898438 L 0.894531 -20.601562 L 2.089844 -20.601562 L 2.089844 -0.296875 L 0.894531 -0.296875 L 0.894531 0 L 5.671875 0 L 5.671875 -0.296875 L 4.480469 -0.296875 L 4.480469 -20.601562 L 5.671875 -20.601562 L 5.671875 -20.898438 Z M 0.894531 -20.898438 "/></g></g></g><g fill="#ffffff" fill-opacity="1"><g transform="translate(159.377576, 230.462094)"><g><path d="M 9.523438 -4.480469 C 9.523438 -1.910156 8 0 6.238281 0 C 4.746094 0 3.851562 -2 3.851562 -4.480469 L 3.851562 -16.421875 C 3.851562 -18.898438 4.746094 -20.898438 6.238281 -20.898438 C 8 -20.898438 9.523438 -18.988281 9.523438 -16.421875 L 9.824219 -16.421875 L 9.824219 -20.898438 L 9.523438 -20.898438 C 9.523438 -20.183594 9.167969 -19.824219 8.75 -19.824219 C 8.089844 -20.691406 7.195312 -21.199219 5.941406 -21.199219 C 3.464844 -21.199219 1.464844 -19.050781 1.464844 -16.421875 L 1.464844 -4.480469 C 1.464844 -1.851562 3.464844 0.296875 5.941406 0.296875 C 7.195312 0.296875 8.089844 -0.238281 8.75 -1.074219 C 9.167969 -1.074219 9.523438 -0.714844 9.523438 0 L 9.824219 0 L 9.824219 -4.480469 Z M 9.523438 -4.480469 "/></g></g></g><g fill="#ffffff" fill-opacity="1"><g transform="translate(170.749816, 230.462094)"><g><path d="M -0.179688 0 L 2.6875 0 L 2.6875 -0.296875 L 1.550781 -0.296875 L 2.777344 -6.121094 L 7.046875 -6.121094 L 8.300781 -0.296875 L 7.105469 -0.296875 L 7.105469 0 L 11.941406 0 L 11.941406 -0.296875 L 10.75 -0.296875 L 6.152344 -21.199219 L 5.671875 -21.199219 L 1.492188 -1.433594 C 1.34375 -0.746094 0.777344 -0.296875 -0.179688 -0.296875 Z M 4.867188 -15.914062 L 6.988281 -6.417969 L 2.835938 -6.417969 Z M 4.867188 -15.914062 "/></g></g></g><g fill="#ffffff" fill-opacity="1"><g transform="translate(183.286113, 230.462094)"><g><path d="M 0.894531 -0.296875 L 0.894531 0 L 5.671875 0 C 8.898438 0 11.046875 -2.148438 11.046875 -4.777344 L 11.046875 -16.125 C 11.046875 -18.75 8.898438 -20.898438 5.671875 -20.898438 L 0.894531 -20.898438 L 0.894531 -20.601562 L 2.089844 -20.601562 L 2.089844 -0.296875 Z M 8.660156 -4.777344 C 8.660156 -2.300781 7.316406 -0.296875 5.671875 -0.296875 L 4.480469 -0.296875 L 4.480469 -20.601562 L 5.671875 -20.601562 C 7.316406 -20.601562 8.660156 -18.601562 8.660156 -16.125 Z M 8.660156 -4.777344 "/></g></g></g><g fill="#ffffff" fill-opacity="1"><g transform="translate(196.359666, 230.462094)"><g><path d="M 8.628906 -4.480469 C 8.628906 -2 7.734375 0 6.238281 0 C 4.746094 0 3.851562 -2 3.851562 -4.480469 L 3.851562 -16.421875 C 3.851562 -18.898438 4.746094 -20.898438 6.238281 -20.898438 C 7.734375 -20.898438 8.628906 -18.898438 8.628906 -16.421875 Z M 1.464844 -4.480469 C 1.464844 -1.851562 3.464844 0.296875 6.238281 0.296875 C 9.015625 0.296875 11.015625 -1.851562 11.015625 -4.480469 L 11.015625 -16.421875 C 11.015625 -19.050781 9.015625 -21.199219 6.238281 -21.199219 C 3.464844 -21.199219 1.464844 -19.050781 1.464844 -16.421875 Z M 1.464844 -4.480469 "/></g></g></g><g fill="#ffffff" fill-opacity="1"><g transform="translate(115.959313, 262.646056)"><g><path d="M 8.007812 1.324219 C 8.097656 1.324219 8.191406 1.230469 8.191406 1.140625 C 8.191406 1.109375 8.191406 1.078125 8.160156 1.046875 C 8.007812 0.738281 8.777344 -0.585938 10.746094 -3.171875 C 12.257812 -3.140625 13.917969 -3.046875 15.796875 -2.925781 C 15.890625 -2.925781 15.984375 -3.019531 15.984375 -3.109375 C 15.984375 -3.203125 15.890625 -3.265625 15.796875 -3.296875 C 14.042969 -3.386719 12.472656 -3.480469 11.023438 -3.542969 C 11.703125 -4.433594 12.535156 -5.480469 13.488281 -6.714844 C 14.75 -8.253906 15.765625 -9.546875 15.890625 -9.886719 C 16.011719 -10.222656 15.890625 -10.441406 15.550781 -10.441406 C 14.074219 -10.441406 8.59375 -6.835938 4.21875 -3.511719 C 2.402344 -3.417969 0.953125 -3.234375 -0.214844 -2.988281 C -0.308594 -2.957031 -0.371094 -2.894531 -0.371094 -2.800781 C -0.371094 -2.710938 -0.277344 -2.617188 -0.183594 -2.617188 L -0.152344 -2.617188 C 0.894531 -2.863281 2.15625 -3.019531 3.695312 -3.109375 C 2.277344 -2.03125 1.015625 -0.984375 0.0625 -0.125 C 0.03125 -0.09375 0 -0.0625 0 0 C 0 0.09375 0.09375 0.183594 0.183594 0.183594 C 0.214844 0.183594 0.277344 0.152344 0.308594 0.125 C 1.324219 -0.800781 2.773438 -1.972656 4.34375 -3.171875 C 6.003906 -3.265625 7.945312 -3.265625 10.316406 -3.203125 C 8.316406 -0.585938 7.574219 0.738281 7.851562 1.230469 C 7.882812 1.292969 7.945312 1.324219 8.007812 1.324219 Z M 4.835938 -3.542969 C 9.085938 -6.742188 14.195312 -10.101562 15.550781 -10.101562 C 15.613281 -10.101562 15.613281 -10.164062 15.550781 -10.007812 C 15.460938 -9.730469 14.472656 -8.5 13.210938 -6.929688 L 10.5625 -3.542969 C 8.316406 -3.601562 6.4375 -3.601562 4.835938 -3.542969 Z M 4.835938 -3.542969 "/></g></g></g><g fill="#ffffff" fill-opacity="1"><g transform="translate(130.890297, 262.646056)"><g><path d="M 3.632812 0 C 4.710938 0 7.699219 -1.324219 9.269531 -2.402344 C 9.300781 -2.433594 9.332031 -2.464844 9.332031 -2.523438 C 9.332031 -2.617188 9.269531 -2.710938 9.175781 -2.710938 C 9.117188 -2.710938 9.085938 -2.710938 9.054688 -2.679688 C 7.453125 -1.570312 4.589844 -0.339844 3.632812 -0.339844 C 3.078125 -0.339844 2.863281 -0.523438 2.863281 -0.925781 C 2.863281 -1.507812 3.542969 -2.277344 4.003906 -2.800781 C 4.34375 -3.203125 4.621094 -3.601562 4.1875 -3.601562 C 4.003906 -3.601562 3.601562 -3.265625 2.617188 -2.464844 C 1.046875 -1.199219 0.152344 -0.585938 -0.214844 -0.585938 C -0.277344 -0.585938 -0.308594 -0.648438 -0.308594 -0.738281 C -0.308594 -1.140625 0.308594 -1.972656 1.355469 -2.894531 C 1.386719 -2.925781 1.417969 -2.957031 1.417969 -3.019531 C 1.417969 -3.109375 1.324219 -3.203125 1.230469 -3.203125 C 1.171875 -3.203125 1.140625 -3.171875 1.109375 -3.140625 C -0.03125 -2.125 -0.675781 -1.261719 -0.675781 -0.707031 C -0.675781 -0.429688 -0.492188 -0.246094 -0.214844 -0.246094 C 0.277344 -0.246094 1.171875 -0.832031 2.832031 -2.1875 C 3.203125 -2.464844 3.171875 -2.402344 2.957031 -2.09375 C 2.710938 -1.695312 2.523438 -1.292969 2.523438 -0.925781 C 2.523438 -0.308594 2.894531 0 3.632812 0 Z M 3.632812 0 "/></g></g></g><g fill="#ffffff" fill-opacity="1"><g transform="translate(139.81818, 262.646056)"><g><path d="M -6.496094 7.820312 C -6.34375 7.820312 -6.160156 7.574219 -6.003906 7.328125 C -5.945312 7.238281 -5.945312 7.144531 -6.003906 7.113281 C -3.078125 2.523438 0.648438 -2.277344 4.464844 -6.742188 C 7.144531 -6.867188 9.886719 -6.867188 12.503906 -6.773438 C 12.625 -6.773438 12.6875 -6.835938 12.6875 -6.929688 C 12.6875 -7.019531 12.625 -7.113281 12.535156 -7.113281 C 9.976562 -7.207031 7.359375 -7.207031 4.804688 -7.113281 C 6.46875 -9.054688 8.128906 -10.933594 9.792969 -12.71875 C 9.824219 -12.75 9.824219 -12.8125 9.824219 -12.839844 C 9.824219 -12.933594 9.761719 -13.027344 9.640625 -13.027344 C 9.609375 -13.027344 9.546875 -12.996094 9.515625 -12.964844 C 7.792969 -11.085938 6.035156 -9.117188 4.3125 -7.082031 C 1.539062 -6.992188 -1.140625 -6.773438 -3.542969 -6.46875 C -3.632812 -6.4375 -3.695312 -6.375 -3.695312 -6.28125 C -3.695312 -6.191406 -3.601562 -6.097656 -3.511719 -6.097656 L -3.480469 -6.097656 C -1.199219 -6.40625 1.355469 -6.621094 4.003906 -6.742188 C 0.125 -2.1875 -3.601562 2.648438 -6.558594 7.296875 C -6.589844 7.359375 -6.621094 7.421875 -6.652344 7.484375 L -6.683594 7.515625 C -6.742188 7.699219 -6.714844 7.820312 -6.496094 7.820312 Z M -6.496094 7.820312 "/></g></g></g><g fill="#ffffff" fill-opacity="1"><g transform="translate(144.867132, 262.646056)"><g><path d="M -0.183594 0.246094 C 0.800781 0.246094 1.753906 -1.417969 1.570312 -2.617188 C 1.570312 -2.679688 1.601562 -2.742188 1.664062 -2.679688 C 3.449219 -1.570312 5.820312 -1.449219 7.421875 -2.371094 C 7.484375 -2.402344 7.542969 -2.464844 7.542969 -2.523438 C 7.542969 -2.617188 7.453125 -2.679688 7.359375 -2.679688 L 7.269531 -2.679688 C 5.789062 -1.816406 3.632812 -1.941406 1.972656 -2.925781 C 1.910156 -2.957031 1.910156 -2.988281 1.972656 -3.019531 C 2 -3.046875 2.0625 -3.046875 2.09375 -3.078125 C 2.1875 -3.078125 2.21875 -3.140625 2.21875 -3.234375 C 2.21875 -3.324219 2.15625 -3.417969 2.0625 -3.417969 C 2.03125 -3.417969 2 -3.417969 2 -3.386719 C 1.847656 -3.355469 1.695312 -3.296875 1.570312 -3.234375 C 1.507812 -3.203125 1.507812 -3.203125 1.449219 -3.234375 C 1.324219 -3.265625 1.199219 -3.171875 1.140625 -3.046875 C 1.140625 -3.019531 1.109375 -3.019531 1.109375 -2.988281 C 0.03125 -2.339844 -0.769531 -1.324219 -0.769531 -0.460938 C -0.769531 -0.03125 -0.554688 0.246094 -0.183594 0.246094 Z M -0.183594 -0.09375 C -0.339844 -0.09375 -0.429688 -0.214844 -0.429688 -0.460938 C -0.429688 -1.171875 0.277344 -2.0625 1.230469 -2.648438 C 1.386719 -1.664062 0.554688 -0.09375 -0.183594 -0.09375 Z M -0.183594 -0.09375 "/></g></g></g><g fill="#ffffff" fill-opacity="1"><g transform="translate(151.978691, 262.646056)"><g><path d="M -0.863281 0.183594 C -0.617188 0.183594 -0.183594 -0.125 1.199219 -1.292969 C 2.585938 -2.402344 4.1875 -3.757812 4.925781 -3.757812 C 5.050781 -3.757812 5.113281 -3.695312 5.113281 -3.601562 C 5.113281 -3.386719 4.867188 -2.925781 4.21875 -1.910156 C 3.632812 -1.078125 3.480469 -0.769531 3.480469 -0.554688 C 3.480469 -0.398438 3.542969 -0.277344 3.695312 -0.277344 C 3.878906 -0.277344 4.1875 -0.429688 5.019531 -0.953125 C 6.097656 -1.601562 6.527344 -1.816406 6.742188 -1.816406 C 6.835938 -1.816406 6.867188 -1.753906 6.867188 -1.722656 C 6.867188 -1.601562 6.835938 -1.449219 6.804688 -1.261719 C 6.773438 -1.078125 6.773438 -0.863281 6.773438 -0.648438 C 6.773438 -0.277344 7.050781 -0.0625 7.542969 -0.0625 C 8.40625 -0.0625 9.699219 -0.707031 12.101562 -2.371094 C 12.164062 -2.402344 12.195312 -2.464844 12.195312 -2.523438 C 12.195312 -2.617188 12.101562 -2.679688 12.011719 -2.679688 C 11.980469 -2.679688 11.949219 -2.679688 11.917969 -2.648438 C 9.578125 -1.046875 8.316406 -0.398438 7.542969 -0.398438 C 7.238281 -0.398438 7.113281 -0.492188 7.113281 -0.648438 C 7.113281 -0.832031 7.144531 -1.046875 7.175781 -1.230469 C 7.175781 -1.386719 7.207031 -1.570312 7.207031 -1.722656 C 7.207031 -2 7.082031 -2.15625 6.804688 -2.15625 C 6.375 -2.15625 5.542969 -1.664062 4.835938 -1.261719 L 4.15625 -0.832031 C 4.035156 -0.769531 3.941406 -0.863281 4.035156 -0.984375 L 4.496094 -1.722656 C 5.203125 -2.800781 5.480469 -3.265625 5.480469 -3.632812 C 5.480469 -3.941406 5.234375 -4.097656 4.835938 -4.097656 C 4.25 -4.097656 3.265625 -3.417969 0.984375 -1.539062 C 0.308594 -1.015625 -0.125 -0.648438 -0.429688 -0.429688 C -0.523438 -0.371094 -0.648438 -0.429688 -0.554688 -0.554688 C -0.183594 -1.199219 0.707031 -2.371094 1.695312 -3.265625 C 1.722656 -3.296875 1.753906 -3.355469 1.753906 -3.386719 C 1.753906 -3.511719 1.664062 -3.570312 1.570312 -3.570312 C 1.539062 -3.570312 1.476562 -3.570312 1.449219 -3.542969 C 0.371094 -2.554688 -1.140625 -0.554688 -1.140625 -0.125 C -1.140625 0.0625 -1.046875 0.152344 -0.863281 0.183594 Z M -0.863281 0.183594 "/></g></g></g><g fill="#ffffff" fill-opacity="1"><g transform="translate(163.769589, 262.646056)"><g><path d="M 4.15625 0.03125 C 5.234375 0.03125 8.066406 -1.140625 9.792969 -2.371094 C 9.824219 -2.402344 9.855469 -2.464844 9.855469 -2.523438 C 9.855469 -2.617188 9.792969 -2.679688 9.699219 -2.679688 C 9.640625 -2.679688 9.609375 -2.679688 9.578125 -2.648438 C 7.851562 -1.355469 5.113281 -0.339844 4.15625 -0.339844 C 3.632812 -0.339844 3.386719 -0.492188 3.386719 -0.894531 C 3.386719 -1.476562 3.878906 -2.21875 4.25 -2.742188 C 4.464844 -3.046875 4.589844 -3.234375 4.589844 -3.355469 C 4.589844 -3.480469 4.496094 -3.570312 4.371094 -3.570312 C 4.21875 -3.570312 3.847656 -3.324219 3.203125 -2.832031 C 3.019531 -3.171875 2.800781 -3.296875 2.339844 -3.296875 C 1.292969 -3.296875 -1.476562 -1.570312 -1.476562 -0.523438 C -1.476562 -0.214844 -1.261719 -0.03125 -0.925781 -0.03125 C -0.0625 -0.03125 1.847656 -1.449219 3.140625 -2.371094 C 3.386719 -2.554688 3.601562 -2.710938 3.757812 -2.800781 C 3.820312 -2.863281 3.910156 -2.832031 3.820312 -2.742188 C 3.449219 -2.1875 3.046875 -1.507812 3.046875 -0.894531 C 3.046875 -0.277344 3.417969 0.03125 4.15625 0.03125 Z M -0.925781 -0.398438 C -1.078125 -0.398438 -1.140625 -0.429688 -1.140625 -0.523438 C -1.140625 -1.261719 1.292969 -2.957031 2.339844 -2.957031 C 2.679688 -2.957031 2.773438 -2.894531 2.894531 -2.648438 C 1.632812 -1.695312 -0.183594 -0.398438 -0.925781 -0.398438 Z M -0.925781 -0.398438 "/></g></g></g><g fill="#ffffff" fill-opacity="1"><g transform="translate(173.220824, 262.646056)"><g><path d="M -6.496094 7.820312 C -6.34375 7.820312 -6.160156 7.574219 -6.003906 7.328125 C -5.945312 7.238281 -5.945312 7.144531 -6.003906 7.113281 C -3.078125 2.523438 0.648438 -2.277344 4.464844 -6.742188 C 7.144531 -6.867188 9.886719 -6.867188 12.503906 -6.773438 C 12.625 -6.773438 12.6875 -6.835938 12.6875 -6.929688 C 12.6875 -7.019531 12.625 -7.113281 12.535156 -7.113281 C 9.976562 -7.207031 7.359375 -7.207031 4.804688 -7.113281 C 6.46875 -9.054688 8.128906 -10.933594 9.792969 -12.71875 C 9.824219 -12.75 9.824219 -12.8125 9.824219 -12.839844 C 9.824219 -12.933594 9.761719 -13.027344 9.640625 -13.027344 C 9.609375 -13.027344 9.546875 -12.996094 9.515625 -12.964844 C 7.792969 -11.085938 6.035156 -9.117188 4.3125 -7.082031 C 1.539062 -6.992188 -1.140625 -6.773438 -3.542969 -6.46875 C -3.632812 -6.4375 -3.695312 -6.375 -3.695312 -6.28125 C -3.695312 -6.191406 -3.601562 -6.097656 -3.511719 -6.097656 L -3.480469 -6.097656 C -1.199219 -6.40625 1.355469 -6.621094 4.003906 -6.742188 C 0.125 -2.1875 -3.601562 2.648438 -6.558594 7.296875 C -6.589844 7.359375 -6.621094 7.421875 -6.652344 7.484375 L -6.683594 7.515625 C -6.742188 7.699219 -6.714844 7.820312 -6.496094 7.820312 Z M -6.496094 7.820312 "/></g></g></g><g fill="#ffffff" fill-opacity="1"><g transform="translate(178.269779, 262.646056)"><g><path d="M 1.015625 0.09375 C 1.972656 0.09375 4.957031 -0.769531 7.113281 -2.371094 C 7.175781 -2.402344 7.207031 -2.464844 7.207031 -2.523438 C 7.207031 -2.617188 7.113281 -2.679688 7.019531 -2.679688 C 6.992188 -2.679688 6.960938 -2.679688 6.929688 -2.648438 C 4.804688 -1.109375 1.910156 -0.277344 1.015625 -0.277344 C 0.308594 -0.277344 -0.0625 -0.460938 -0.0625 -0.863281 C -0.0625 -1.261719 0.246094 -1.753906 0.648438 -2.1875 C 0.832031 -2.09375 1.078125 -2.0625 1.417969 -2.0625 C 1.972656 -2.0625 2.679688 -2.523438 2.679688 -2.925781 C 2.679688 -3.234375 2.464844 -3.417969 2.125 -3.417969 C 1.109375 -3.417969 -0.429688 -1.878906 -0.429688 -0.863281 C -0.429688 -0.246094 0.125 0.09375 1.015625 0.09375 Z M 1.417969 -2.402344 C 1.199219 -2.402344 1.046875 -2.433594 0.925781 -2.464844 C 1.324219 -2.800781 1.753906 -3.046875 2.125 -3.046875 C 2.277344 -3.046875 2.339844 -3.019531 2.339844 -2.925781 C 2.339844 -2.742188 1.753906 -2.402344 1.417969 -2.402344 Z M 1.417969 -2.402344 "/></g></g></g><g fill="#ffffff" fill-opacity="1"><g transform="translate(185.042707, 262.646056)"><g/></g></g><g fill="#ffffff" fill-opacity="1"><g transform="translate(192.308188, 262.646056)"><g><path d="M -10.46875 12.59375 C -8.40625 12.59375 -2.648438 7.882812 1.324219 3.511719 C 1.785156 2.988281 2.246094 2.464844 2.648438 1.910156 C 5.511719 0.214844 7.976562 -1.449219 9.332031 -2.339844 C 9.363281 -2.371094 9.390625 -2.433594 9.390625 -2.496094 C 9.390625 -2.585938 9.300781 -2.648438 9.207031 -2.648438 C 9.175781 -2.648438 9.144531 -2.648438 9.117188 -2.617188 C 7.667969 -1.601562 5.757812 -0.339844 3.171875 1.171875 C 4.621094 -0.832031 5.511719 -2.679688 5.511719 -3.171875 C 5.511719 -3.417969 5.390625 -3.570312 5.144531 -3.570312 C 4.925781 -3.570312 4.527344 -3.296875 3.265625 -2.371094 C 1.972656 -1.386719 0.371094 -0.183594 -0.277344 -0.183594 C -0.429688 -0.183594 -0.460938 -0.214844 -0.460938 -0.308594 C -0.460938 -0.769531 0.863281 -2.554688 1.785156 -3.355469 C 1.816406 -3.386719 1.847656 -3.417969 1.847656 -3.480469 C 1.847656 -3.570312 1.753906 -3.664062 1.664062 -3.664062 C 1.632812 -3.664062 1.601562 -3.632812 1.570312 -3.632812 C 0.738281 -2.925781 -0.832031 -0.984375 -0.832031 -0.308594 C -0.832031 0 -0.617188 0.183594 -0.277344 0.183594 C 0.492188 0.183594 2.1875 -1.109375 3.511719 -2.0625 C 4.3125 -2.679688 4.742188 -3.019531 4.988281 -3.140625 C 5.082031 -3.203125 5.144531 -3.140625 5.144531 -3.046875 C 4.925781 -2.09375 3.386719 0.339844 2.402344 1.632812 L 2.1875 1.753906 L -2.585938 4.621094 C -8.5 8.285156 -11.210938 10.5 -11.210938 11.886719 C -11.210938 12.316406 -10.902344 12.59375 -10.46875 12.59375 Z M -10.46875 12.226562 C -10.714844 12.226562 -10.839844 12.101562 -10.839844 11.886719 C -10.839844 10.6875 -8.128906 8.46875 -2.402344 4.925781 C -1.015625 4.066406 0.429688 3.234375 1.816406 2.402344 L 1.078125 3.265625 C -3.203125 8.007812 -8.652344 12.226562 -10.46875 12.226562 Z M -10.46875 12.226562 "/></g></g></g><g fill="#ffffff" fill-opacity="1"><g transform="translate(201.328427, 262.646056)"><g><path d="M -0.183594 0.246094 C 0.800781 0.246094 1.753906 -1.417969 1.570312 -2.617188 C 1.570312 -2.679688 1.601562 -2.742188 1.664062 -2.679688 C 3.449219 -1.570312 5.820312 -1.449219 7.421875 -2.371094 C 7.484375 -2.402344 7.542969 -2.464844 7.542969 -2.523438 C 7.542969 -2.617188 7.453125 -2.679688 7.359375 -2.679688 L 7.269531 -2.679688 C 5.789062 -1.816406 3.632812 -1.941406 1.972656 -2.925781 C 1.910156 -2.957031 1.910156 -2.988281 1.972656 -3.019531 C 2 -3.046875 2.0625 -3.046875 2.09375 -3.078125 C 2.1875 -3.078125 2.21875 -3.140625 2.21875 -3.234375 C 2.21875 -3.324219 2.15625 -3.417969 2.0625 -3.417969 C 2.03125 -3.417969 2 -3.417969 2 -3.386719 C 1.847656 -3.355469 1.695312 -3.296875 1.570312 -3.234375 C 1.507812 -3.203125 1.507812 -3.203125 1.449219 -3.234375 C 1.324219 -3.265625 1.199219 -3.171875 1.140625 -3.046875 C 1.140625 -3.019531 1.109375 -3.019531 1.109375 -2.988281 C 0.03125 -2.339844 -0.769531 -1.324219 -0.769531 -0.460938 C -0.769531 -0.03125 -0.554688 0.246094 -0.183594 0.246094 Z M -0.183594 -0.09375 C -0.339844 -0.09375 -0.429688 -0.214844 -0.429688 -0.460938 C -0.429688 -1.171875 0.277344 -2.0625 1.230469 -2.648438 C 1.386719 -1.664062 0.554688 -0.09375 -0.183594 -0.09375 Z M -0.183594 -0.09375 "/></g></g></g><g fill="#ffffff" fill-opacity="1"><g transform="translate(208.439985, 262.646056)"><g><path d="M 3.632812 0 C 4.710938 0 7.699219 -1.324219 9.269531 -2.402344 C 9.300781 -2.433594 9.332031 -2.464844 9.332031 -2.523438 C 9.332031 -2.617188 9.269531 -2.710938 9.175781 -2.710938 C 9.117188 -2.710938 9.085938 -2.710938 9.054688 -2.679688 C 7.453125 -1.570312 4.589844 -0.339844 3.632812 -0.339844 C 3.078125 -0.339844 2.863281 -0.523438 2.863281 -0.925781 C 2.863281 -1.507812 3.542969 -2.277344 4.003906 -2.800781 C 4.34375 -3.203125 4.621094 -3.601562 4.1875 -3.601562 C 4.003906 -3.601562 3.601562 -3.265625 2.617188 -2.464844 C 1.046875 -1.199219 0.152344 -0.585938 -0.214844 -0.585938 C -0.277344 -0.585938 -0.308594 -0.648438 -0.308594 -0.738281 C -0.308594 -1.140625 0.308594 -1.972656 1.355469 -2.894531 C 1.386719 -2.925781 1.417969 -2.957031 1.417969 -3.019531 C 1.417969 -3.109375 1.324219 -3.203125 1.230469 -3.203125 C 1.171875 -3.203125 1.140625 -3.171875 1.109375 -3.140625 C -0.03125 -2.125 -0.675781 -1.261719 -0.675781 -0.707031 C -0.675781 -0.429688 -0.492188 -0.246094 -0.214844 -0.246094 C 0.277344 -0.246094 1.171875 -0.832031 2.832031 -2.1875 C 3.203125 -2.464844 3.171875 -2.402344 2.957031 -2.09375 C 2.710938 -1.695312 2.523438 -1.292969 2.523438 -0.925781 C 2.523438 -0.308594 2.894531 0 3.632812 0 Z M 3.632812 0 "/></g></g></g><g fill="#ffffff" fill-opacity="1"><g transform="translate(217.367864, 262.646056)"><g><path d="M 0.398438 3.324219 C 2.246094 3.324219 7.605469 -0.152344 10.6875 -2.371094 C 10.714844 -2.402344 10.746094 -2.464844 10.746094 -2.523438 C 10.746094 -2.617188 10.6875 -2.679688 10.5625 -2.679688 C 10.53125 -2.679688 10.5 -2.679688 10.46875 -2.648438 C 7.421875 -0.429688 2.15625 2.957031 0.398438 2.957031 C 0.03125 2.957031 -0.09375 2.832031 -0.09375 2.523438 C -0.09375 1.632812 1.476562 0.09375 2.988281 -1.386719 C 4.3125 -2.710938 5.636719 -4.003906 5.636719 -4.742188 C 5.636719 -5.113281 5.203125 -5.359375 4.679688 -5.851562 C 5.851562 -7.113281 6.714844 -8.253906 6.714844 -8.683594 C 6.714844 -8.898438 6.589844 -9.054688 6.375 -9.054688 C 5.417969 -9.054688 3.265625 -7.421875 3.265625 -6.652344 C 3.265625 -6.375 3.570312 -6.160156 4.125 -5.789062 C 3.109375 -4.710938 1.816406 -3.542969 0.585938 -2.648438 C 0.554688 -2.617188 0.523438 -2.554688 0.523438 -2.523438 C 0.523438 -2.402344 0.585938 -2.339844 0.675781 -2.339844 C 0.738281 -2.339844 0.769531 -2.339844 0.800781 -2.371094 C 1.910156 -3.171875 3.296875 -4.402344 4.433594 -5.605469 C 5.050781 -5.171875 5.265625 -4.957031 5.265625 -4.742188 C 5.265625 -4.15625 4.066406 -2.957031 2.742188 -1.664062 C 1.230469 -0.152344 -0.429688 1.476562 -0.429688 2.523438 C -0.429688 3.019531 -0.183594 3.324219 0.398438 3.324219 Z M 4.371094 -6.035156 C 3.820312 -6.40625 3.632812 -6.589844 3.632812 -6.652344 C 3.632812 -7.175781 5.390625 -8.5 6.21875 -8.652344 C 6.3125 -8.683594 6.375 -8.621094 6.34375 -8.53125 C 6.128906 -8.007812 5.019531 -6.714844 4.371094 -6.035156 Z M 4.371094 -6.035156 "/></g></g></g><g fill="#ffffff" fill-opacity="1"><g transform="translate(227.711857, 262.646056)"><g/></g></g><g fill="#ffffff" fill-opacity="1"><g transform="translate(234.977333, 262.646056)"><g><path d="M 0.183594 1.355469 C 1.386719 1.355469 4.867188 -0.554688 7.484375 -2.371094 C 7.515625 -2.402344 7.542969 -2.433594 7.542969 -2.496094 C 7.542969 -2.585938 7.484375 -2.679688 7.390625 -2.679688 C 7.328125 -2.679688 7.296875 -2.679688 7.269531 -2.648438 C 4.34375 -0.617188 1.171875 1.015625 0.183594 1.015625 C -0.339844 1.015625 -0.492188 0.894531 -0.492188 0.460938 C -0.492188 -0.152344 -0.09375 -1.109375 0.617188 -2.21875 C 5.851562 -5.390625 14.996094 -13.394531 14.996094 -15.183594 C 14.996094 -15.582031 14.75 -15.796875 14.320312 -15.796875 C 11.734375 -15.796875 -0.832031 -3.171875 -0.832031 0.460938 C -0.832031 1.078125 -0.523438 1.355469 0.183594 1.355469 Z M 1.078125 -2.894531 C 4.464844 -7.882812 12.410156 -15.460938 14.320312 -15.460938 C 14.566406 -15.460938 14.660156 -15.367188 14.660156 -15.183594 C 14.660156 -13.703125 6.527344 -6.40625 1.078125 -2.894531 Z M 1.078125 -2.894531 "/></g></g></g><g fill="#ffffff" fill-opacity="1"><g transform="translate(242.150455, 262.646056)"><g><path d="M 2.21875 -3.972656 C 2.277344 -3.972656 2.308594 -3.972656 2.339844 -4.035156 L 2.464844 -4.15625 C 2.554688 -4.3125 2.679688 -4.464844 2.742188 -4.527344 C 2.773438 -4.558594 2.773438 -4.621094 2.773438 -4.648438 C 2.773438 -4.742188 2.710938 -4.835938 2.617188 -4.835938 C 2.554688 -4.835938 2.496094 -4.804688 2.464844 -4.773438 C 2.402344 -4.679688 2.277344 -4.496094 2.1875 -4.371094 L 2.0625 -4.25 C 2.03125 -4.21875 2.03125 -4.1875 2.03125 -4.125 C 2.03125 -4.035156 2.125 -3.972656 2.21875 -3.972656 Z M 0.246094 0.183594 C 1.292969 0.183594 4.527344 -1.324219 6.191406 -2.371094 C 6.21875 -2.402344 6.25 -2.464844 6.25 -2.523438 C 6.25 -2.617188 6.191406 -2.679688 6.066406 -2.679688 L 5.972656 -2.679688 C 4.371094 -1.632812 1.199219 -0.183594 0.246094 -0.183594 C -0.09375 -0.183594 -0.246094 -0.308594 -0.246094 -0.617188 C -0.246094 -1.046875 0.492188 -2.09375 1.539062 -3.171875 C 1.570312 -3.203125 1.601562 -3.234375 1.601562 -3.296875 C 1.601562 -3.386719 1.507812 -3.449219 1.417969 -3.449219 C 1.355469 -3.449219 1.324219 -3.449219 1.292969 -3.417969 C 0.152344 -2.246094 -0.585938 -1.199219 -0.585938 -0.617188 C -0.585938 -0.125 -0.277344 0.183594 0.246094 0.183594 Z M 0.246094 0.183594 "/></g></g></g><g fill="#ffffff" fill-opacity="1"><g transform="translate(247.999816, 262.646056)"><g><path d="M -7.175781 9.117188 C -6.992188 9.117188 -6.773438 8.777344 -6.558594 8.375 C -6.496094 8.285156 -6.496094 8.191406 -6.558594 8.160156 C -5.171875 5.882812 -2.863281 2.554688 -0.398438 -0.738281 C -0.152344 -0.707031 0.0625 -0.675781 0.246094 -0.675781 C 2.03125 -0.675781 3.972656 -0.925781 6.035156 -2.371094 C 6.097656 -2.402344 6.128906 -2.464844 6.128906 -2.523438 C 6.128906 -2.617188 6.035156 -2.679688 5.945312 -2.679688 C 5.914062 -2.679688 5.851562 -2.679688 5.820312 -2.648438 C 3.847656 -1.261719 2.03125 -1.046875 0.246094 -1.046875 L -0.152344 -1.046875 C 0.183594 -1.507812 0.523438 -1.972656 0.863281 -2.402344 C 4.621094 -4.496094 9.421875 -9.945312 9.421875 -11.054688 C 9.421875 -11.300781 9.207031 -11.488281 8.929688 -11.488281 C 7.882812 -11.488281 4.28125 -7.390625 0.648438 -2.679688 C 0.617188 -2.679688 0.617188 -2.679688 0.617188 -2.648438 C 0.214844 -2.15625 -0.183594 -1.632812 -0.554688 -1.109375 C -1.261719 -1.171875 -2.15625 -1.355469 -3.078125 -1.664062 C -3.109375 -1.695312 -3.109375 -1.695312 -3.140625 -1.695312 C -3.234375 -1.695312 -3.324219 -1.601562 -3.324219 -1.507812 C -3.324219 -1.417969 -3.265625 -1.355469 -3.203125 -1.355469 C -2.339844 -1.046875 -1.507812 -0.863281 -0.800781 -0.769531 C -3.480469 2.773438 -5.945312 6.375 -7.238281 8.621094 L -7.328125 8.808594 C -7.359375 8.808594 -7.359375 8.839844 -7.359375 8.839844 C -7.390625 8.992188 -7.359375 9.117188 -7.175781 9.117188 Z M 1.449219 -3.171875 C 4.835938 -7.484375 8.007812 -11.117188 8.929688 -11.117188 C 9.023438 -11.117188 9.054688 -11.085938 9.054688 -11.054688 C 9.054688 -10.164062 5.019531 -5.480469 1.449219 -3.171875 Z M 1.449219 -3.171875 "/></g></g></g><g fill="#ffffff" fill-opacity="1"><g transform="translate(253.726039, 262.646056)"><g><path d="M 1.015625 0.09375 C 1.972656 0.09375 4.957031 -0.769531 7.113281 -2.371094 C 7.175781 -2.402344 7.207031 -2.464844 7.207031 -2.523438 C 7.207031 -2.617188 7.113281 -2.679688 7.019531 -2.679688 C 6.992188 -2.679688 6.960938 -2.679688 6.929688 -2.648438 C 4.804688 -1.109375 1.910156 -0.277344 1.015625 -0.277344 C 0.308594 -0.277344 -0.0625 -0.460938 -0.0625 -0.863281 C -0.0625 -1.261719 0.246094 -1.753906 0.648438 -2.1875 C 0.832031 -2.09375 1.078125 -2.0625 1.417969 -2.0625 C 1.972656 -2.0625 2.679688 -2.523438 2.679688 -2.925781 C 2.679688 -3.234375 2.464844 -3.417969 2.125 -3.417969 C 1.109375 -3.417969 -0.429688 -1.878906 -0.429688 -0.863281 C -0.429688 -0.246094 0.125 0.09375 1.015625 0.09375 Z M 1.417969 -2.402344 C 1.199219 -2.402344 1.046875 -2.433594 0.925781 -2.464844 C 1.324219 -2.800781 1.753906 -3.046875 2.125 -3.046875 C 2.277344 -3.046875 2.339844 -3.019531 2.339844 -2.925781 C 2.339844 -2.742188 1.753906 -2.402344 1.417969 -2.402344 Z M 1.417969 -2.402344 "/></g></g></g><g fill="#ff1616" fill-opacity="1"><g transform="translate(215.834286, 230.462094)"><g><path d="M 0.476562 -20.898438 L 0.476562 -16.71875 L 0.777344 -16.71875 C 0.777344 -18.871094 1.640625 -20.601562 2.71875 -20.601562 L 4.65625 -20.601562 L 4.65625 -0.296875 L 3.464844 -0.296875 L 3.464844 0 L 8.242188 0 L 8.242188 -0.296875 L 7.046875 -0.296875 L 7.046875 -20.601562 L 8.988281 -20.601562 C 10.0625 -20.601562 10.929688 -18.871094 10.929688 -16.71875 L 11.226562 -16.71875 L 11.226562 -20.898438 Z M 0.476562 -20.898438 "/></g></g></g><g fill="#ff1616" fill-opacity="1"><g transform="translate(228.131803, 230.462094)"><g><path d="M 9.554688 -20.898438 L 0.894531 -20.898438 L 0.894531 -20.601562 L 2.089844 -20.601562 L 2.089844 -0.296875 L 0.894531 -0.296875 L 0.894531 0 L 9.554688 0 L 9.554688 -4.179688 L 9.253906 -4.179688 C 9.253906 -2.03125 8.390625 -0.296875 7.316406 -0.296875 L 4.480469 -0.296875 L 4.480469 -10.300781 L 6.269531 -10.300781 C 6.925781 -10.300781 7.464844 -9.226562 7.464844 -7.914062 L 7.761719 -7.914062 L 7.761719 -12.988281 L 7.464844 -12.988281 C 7.464844 -11.675781 6.925781 -10.597656 6.269531 -10.597656 L 4.480469 -10.597656 L 4.480469 -20.601562 L 7.316406 -20.601562 C 8.390625 -20.601562 9.253906 -18.871094 9.253906 -16.71875 L 9.554688 -16.71875 Z M 9.554688 -20.898438 "/></g></g></g><g fill="#ff1616" fill-opacity="1"><g transform="translate(239.354811, 230.462094)"><g><path d="M 9.523438 -4.480469 C 9.523438 -1.910156 8 0 6.238281 0 C 4.746094 0 3.851562 -2 3.851562 -4.480469 L 3.851562 -16.421875 C 3.851562 -18.898438 4.746094 -20.898438 6.238281 -20.898438 C 8 -20.898438 9.523438 -18.988281 9.523438 -16.421875 L 9.824219 -16.421875 L 9.824219 -20.898438 L 9.523438 -20.898438 C 9.523438 -20.183594 9.167969 -19.824219 8.75 -19.824219 C 8.089844 -20.691406 7.195312 -21.199219 5.941406 -21.199219 C 3.464844 -21.199219 1.464844 -19.050781 1.464844 -16.421875 L 1.464844 -4.480469 C 1.464844 -1.851562 3.464844 0.296875 5.941406 0.296875 C 7.195312 0.296875 8.089844 -0.238281 8.75 -1.074219 C 9.167969 -1.074219 9.523438 -0.714844 9.523438 0 L 9.824219 0 L 9.824219 -4.480469 Z M 9.523438 -4.480469 "/></g></g></g><g fill="#ff1616" fill-opacity="1"><g transform="translate(250.727051, 230.462094)"><g><path d="M 7.464844 -20.898438 L 7.464844 -20.601562 L 8.660156 -20.601562 L 8.660156 -10.597656 L 4.480469 -10.597656 L 4.480469 -20.601562 L 5.671875 -20.601562 L 5.671875 -20.898438 L 0.894531 -20.898438 L 0.894531 -20.601562 L 2.089844 -20.601562 L 2.089844 -0.296875 L 0.894531 -0.296875 L 0.894531 0 L 5.671875 0 L 5.671875 -0.296875 L 4.480469 -0.296875 L 4.480469 -10.300781 L 8.660156 -10.300781 L 8.660156 -0.296875 L 7.464844 -0.296875 L 7.464844 0 L 12.242188 0 L 12.242188 -0.296875 L 11.046875 -0.296875 L 11.046875 -20.601562 L 12.242188 -20.601562 L 12.242188 -20.898438 Z M 7.464844 -20.898438 "/></g></g></g></svg>